<svg width="400" height="106" viewBox="0 0 400 106" fill="none" xmlns="http://www.w3.org/2000/svg">
<path d="M0 2.43001C0 1.08795 1.08795 0 2.43001 0H49.8152V49.8152H0V2.43001Z" fill="#E74517"/>
<path d="M0 55.8902H49.8152V105.705H2.43001C1.08795 105.705 0 104.617 0 103.275V55.8902Z" fill="#34A1DA"/>
<path d="M54.6753 0H102.06C103.402 0 104.49 1.08795 104.49 2.43001V49.8152H54.6753V0Z" fill="#83B728"/>
<path d="M54.6753 55.8902H104.49V103.275C104.49 104.617 103.402 105.705 102.06 105.705H54.6753V55.8902Z" fill="#F9B900"/>
<path d="M129.435 12.9584H136.583L149.013 43.3072H149.47L161.899 12.9584H169.048V52H163.444V23.7482H163.081L151.567 51.9428H146.916L135.402 23.7292H135.039V52H129.435V12.9584ZM177.155 52V22.7188H182.855V52H177.155ZM180.033 18.2008C179.042 18.2008 178.191 17.8704 177.479 17.2095C176.78 16.536 176.43 15.7353 176.43 14.8076C176.43 13.8671 176.78 13.0665 177.479 12.4056C178.191 11.732 179.042 11.3953 180.033 11.3953C181.025 11.3953 181.87 11.732 182.569 12.4056C183.281 13.0665 183.636 13.8671 183.636 14.8076C183.636 15.7353 183.281 16.536 182.569 17.2095C181.87 17.8704 181.025 18.2008 180.033 18.2008ZM202.857 52.591C200.023 52.591 197.583 51.9492 195.537 50.6656C193.503 49.3693 191.94 47.5837 190.847 45.3088C189.754 43.0339 189.208 40.4286 189.208 37.4929C189.208 34.519 189.767 31.8946 190.885 29.6197C192.004 27.3321 193.579 25.5465 195.613 24.263C197.646 22.9794 200.042 22.3376 202.8 22.3376C205.024 22.3376 207.006 22.7506 208.747 23.5767C210.489 24.39 211.893 25.5338 212.96 27.0081C214.041 28.4823 214.682 30.2043 214.886 32.1742H209.338C209.033 30.8017 208.334 29.6197 207.241 28.6284C206.161 27.6372 204.712 27.1415 202.895 27.1415C201.306 27.1415 199.915 27.5609 198.72 28.3997C197.538 29.2258 196.617 30.4077 195.956 31.9454C195.295 33.4705 194.965 35.2752 194.965 37.3594C194.965 39.4945 195.289 41.3373 195.937 42.8878C196.585 44.4382 197.5 45.6392 198.682 46.4907C199.877 47.3422 201.281 47.768 202.895 47.768C203.975 47.768 204.954 47.571 205.831 47.177C206.72 46.7703 207.464 46.1921 208.061 45.4422C208.671 44.6924 209.097 43.7901 209.338 42.7353H214.886C214.682 44.6289 214.066 46.3191 213.037 47.8061C212.007 49.293 210.628 50.4622 208.9 51.3137C207.184 52.1652 205.17 52.591 202.857 52.591ZM220.981 52V22.7188H226.491V27.3703H226.796C227.329 25.7944 228.27 24.5553 229.617 23.6529C230.977 22.7379 232.515 22.2804 234.23 22.2804C234.586 22.2804 235.005 22.2931 235.488 22.3185C235.984 22.3439 236.372 22.3757 236.651 22.4138V27.8659C236.423 27.8024 236.016 27.7325 235.431 27.6562C234.847 27.5673 234.262 27.5228 233.677 27.5228C232.33 27.5228 231.129 27.8087 230.074 28.3806C229.032 28.9398 228.206 29.7214 227.596 30.7254C226.986 31.7167 226.681 32.8478 226.681 34.1187V52H220.981ZM252.869 52.591C250.124 52.591 247.729 51.9619 245.683 50.7037C243.636 49.4455 242.048 47.6853 240.917 45.4232C239.786 43.161 239.22 40.5176 239.22 37.4929C239.22 34.4554 239.786 31.7993 240.917 29.5244C242.048 27.2495 243.636 25.483 245.683 24.2248C247.729 22.9667 250.124 22.3376 252.869 22.3376C255.614 22.3376 258.01 22.9667 260.056 24.2248C262.102 25.483 263.691 27.2495 264.822 29.5244C265.953 31.7993 266.519 34.4554 266.519 37.4929C266.519 40.5176 265.953 43.161 264.822 45.4232C263.691 47.6853 262.102 49.4455 260.056 50.7037C258.01 51.9619 255.614 52.591 252.869 52.591ZM252.888 47.8061C254.668 47.8061 256.142 47.3359 257.311 46.3954C258.48 45.4549 259.345 44.2031 259.904 42.6399C260.476 41.0768 260.762 39.3547 260.762 37.4738C260.762 35.6056 260.476 33.8899 259.904 32.3267C259.345 30.7508 258.48 29.4863 257.311 28.5331C256.142 27.58 254.668 27.1034 252.888 27.1034C251.096 27.1034 249.61 27.58 248.428 28.5331C247.258 29.4863 246.388 30.7508 245.816 32.3267C245.257 33.8899 244.977 35.6056 244.977 37.4738C244.977 39.3547 245.257 41.0768 245.816 42.6399C246.388 44.2031 247.258 45.4549 248.428 46.3954C249.61 47.3359 251.096 47.8061 252.888 47.8061ZM294.823 29.8676L289.657 30.7826C289.441 30.1217 289.097 29.4926 288.627 28.8953C288.17 28.298 287.547 27.8087 286.759 27.4275C285.971 27.0462 284.986 26.8556 283.804 26.8556C282.19 26.8556 280.843 27.2178 279.763 27.9422C278.683 28.6539 278.142 29.5753 278.142 30.7063C278.142 31.6849 278.505 32.4729 279.229 33.0702C279.953 33.6675 281.123 34.1568 282.737 34.5381L287.388 35.6056C290.082 36.2283 292.09 37.1878 293.412 38.4841C294.734 39.7805 295.395 41.4644 295.395 43.5359C295.395 45.2897 294.886 46.8529 293.87 48.2255C292.866 49.5853 291.461 50.6529 289.657 51.4281C287.865 52.2033 285.787 52.591 283.423 52.591C280.144 52.591 277.469 51.892 275.397 50.494C273.326 49.0833 272.055 47.0817 271.585 44.4891L277.094 43.6503C277.437 45.0864 278.142 46.173 279.21 46.9101C280.278 47.6345 281.669 47.9967 283.385 47.9967C285.253 47.9967 286.746 47.6091 287.865 46.8339C288.983 46.0459 289.542 45.0864 289.542 43.9553C289.542 43.0403 289.199 42.2714 288.513 41.6486C287.839 41.0259 286.804 40.5557 285.406 40.238L280.449 39.1514C277.717 38.5286 275.696 37.5373 274.387 36.1775C273.091 34.8176 272.443 33.0956 272.443 31.0114C272.443 29.2829 272.925 27.7706 273.891 26.4743C274.857 25.178 276.192 24.1676 277.895 23.4432C279.598 22.7061 281.548 22.3376 283.747 22.3376C286.912 22.3376 289.402 23.0238 291.22 24.3964C293.037 25.7562 294.238 27.58 294.823 29.8676ZM313.996 52.591C311.251 52.591 308.855 51.9619 306.809 50.7037C304.763 49.4455 303.174 47.6853 302.043 45.4232C300.912 43.161 300.346 40.5176 300.346 37.4929C300.346 34.4554 300.912 31.7993 302.043 29.5244C303.174 27.2495 304.763 25.483 306.809 24.2248C308.855 22.9667 311.251 22.3376 313.996 22.3376C316.741 22.3376 319.136 22.9667 321.183 24.2248C323.229 25.483 324.817 27.2495 325.948 29.5244C327.079 31.7993 327.645 34.4554 327.645 37.4929C327.645 40.5176 327.079 43.161 325.948 45.4232C324.817 47.6853 323.229 49.4455 321.183 50.7037C319.136 51.9619 316.741 52.591 313.996 52.591ZM314.015 47.8061C315.794 47.8061 317.268 47.3359 318.437 46.3954C319.607 45.4549 320.471 44.2031 321.03 42.6399C321.602 41.0768 321.888 39.3547 321.888 37.4738C321.888 35.6056 321.602 33.8899 321.03 32.3267C320.471 30.7508 319.607 29.4863 318.437 28.5331C317.268 27.58 315.794 27.1034 314.015 27.1034C312.223 27.1034 310.736 27.58 309.554 28.5331C308.385 29.4863 307.514 30.7508 306.942 32.3267C306.383 33.8899 306.104 35.6056 306.104 37.4738C306.104 39.3547 306.383 41.0768 306.942 42.6399C307.514 44.2031 308.385 45.4549 309.554 46.3954C310.736 47.3359 312.223 47.8061 314.015 47.8061ZM347.943 22.7188V27.294H331.396V22.7188H347.943ZM335.933 52V19.3256C335.933 17.4955 336.333 15.9768 337.134 14.7695C337.934 13.5494 338.996 12.6407 340.317 12.0434C341.639 11.4334 343.075 11.1284 344.626 11.1284C345.769 11.1284 346.748 11.2237 347.561 11.4143C348.375 11.5922 348.978 11.7575 349.372 11.91L348.038 16.5233C347.771 16.447 347.428 16.3581 347.008 16.2564C346.589 16.142 346.081 16.0848 345.483 16.0848C344.098 16.0848 343.107 16.428 342.51 17.1142C341.925 17.8005 341.633 18.7918 341.633 20.0881V52H335.933ZM367.492 22.7188V27.294H351.498V22.7188H367.492ZM355.787 15.7036H361.487V43.4025C361.487 44.5081 361.652 45.3406 361.983 45.8998C362.313 46.4462 362.739 46.8211 363.26 47.0245C363.794 47.2151 364.372 47.3104 364.995 47.3104C365.452 47.3104 365.853 47.2787 366.196 47.2151C366.539 47.1516 366.806 47.1007 366.996 47.0626L368.026 51.7712C367.695 51.8983 367.225 52.0254 366.615 52.1525C366.005 52.2923 365.242 52.3686 364.327 52.3813C362.828 52.4067 361.43 52.1398 360.134 51.5806C358.837 51.0214 357.789 50.1572 356.988 48.988C356.187 47.8188 355.787 46.3509 355.787 44.5844V15.7036Z" fill="white"/>
<path d="M145.307 77.0176C145.155 75.7397 144.541 74.7476 143.465 74.0413C142.389 73.3351 141.069 72.982 139.505 72.982C138.362 72.982 137.361 73.167 136.504 73.5369C135.655 73.9068 134.99 74.4155 134.511 75.0629C134.04 75.7102 133.805 76.4459 133.805 77.2699C133.805 77.9593 133.969 78.552 134.297 79.0481C134.633 79.5357 135.062 79.9435 135.583 80.2714C136.104 80.5908 136.651 80.8557 137.223 81.0659C137.794 81.2677 138.32 81.4316 138.799 81.5577L141.422 82.264C142.095 82.4405 142.843 82.6843 143.667 82.9954C144.499 83.3065 145.294 83.7311 146.051 84.2692C146.816 84.7988 147.446 85.4799 147.942 86.3122C148.438 87.1446 148.686 88.1661 148.686 89.3768C148.686 90.7724 148.321 92.0336 147.589 93.1602C146.866 94.2868 145.807 95.1822 144.411 95.8464C143.024 96.5106 141.338 96.8427 139.354 96.8427C137.504 96.8427 135.903 96.5442 134.549 95.9473C133.204 95.3504 132.144 94.518 131.371 93.4503C130.606 92.3825 130.173 91.1424 130.072 89.7299H133.301C133.385 90.7052 133.713 91.5123 134.284 92.1513C134.864 92.7818 135.596 93.2527 136.479 93.5638C137.37 93.8664 138.328 94.0178 139.354 94.0178C140.548 94.0178 141.62 93.8244 142.57 93.4376C143.52 93.0425 144.272 92.496 144.827 91.7982C145.382 91.0919 145.66 90.268 145.66 89.3263C145.66 88.4688 145.42 87.7709 144.941 87.2328C144.462 86.6948 143.831 86.2576 143.049 85.9213C142.267 85.585 141.422 85.2907 140.514 85.0385L137.336 84.1304C135.318 83.5503 133.721 82.7222 132.544 81.646C131.367 80.5698 130.778 79.1616 130.778 77.4212C130.778 75.9751 131.169 74.7139 131.951 73.6378C132.741 72.5532 133.801 71.7124 135.129 71.1155C136.466 70.5102 137.958 70.2075 139.606 70.2075C141.271 70.2075 142.751 70.506 144.045 71.1029C145.34 71.6914 146.366 72.4985 147.123 73.5243C147.888 74.55 148.291 75.7145 148.333 77.0176H145.307ZM161.295 96.7923C159.546 96.7923 158.011 96.3761 156.691 95.5437C155.38 94.7114 154.354 93.5469 153.614 92.0504C152.883 90.5538 152.517 88.8051 152.517 86.8041C152.517 84.7862 152.883 83.0248 153.614 81.5199C154.354 80.0149 155.38 78.8463 156.691 78.0139C158.011 77.1816 159.546 76.7654 161.295 76.7654C163.043 76.7654 164.574 77.1816 165.885 78.0139C167.205 78.8463 168.231 80.0149 168.962 81.5199C169.702 83.0248 170.072 84.7862 170.072 86.8041C170.072 88.8051 169.702 90.5538 168.962 92.0504C168.231 93.5469 167.205 94.7114 165.885 95.5437C164.574 96.3761 163.043 96.7923 161.295 96.7923ZM161.295 94.1187C162.623 94.1187 163.716 93.7781 164.574 93.0971C165.431 92.4161 166.066 91.5207 166.478 90.4109C166.89 89.3011 167.096 88.0988 167.096 86.8041C167.096 85.5093 166.89 84.3028 166.478 83.1846C166.066 82.0664 165.431 81.1626 164.574 80.4731C163.716 79.7837 162.623 79.439 161.295 79.439C159.966 79.439 158.873 79.7837 158.016 80.4731C157.158 81.1626 156.523 82.0664 156.111 83.1846C155.699 84.3028 155.493 85.5093 155.493 86.8041C155.493 88.0988 155.699 89.3011 156.111 90.4109C156.523 91.5207 157.158 92.4161 158.016 93.0971C158.873 93.7781 159.966 94.1187 161.295 94.1187ZM177.592 70.5606V96.3887H174.615V70.5606H177.592ZM195.251 88.4688V77.0176H198.227V96.3887H195.251V93.1097H195.049C194.595 94.0934 193.889 94.93 192.93 95.6194C191.972 96.3004 190.761 96.6409 189.298 96.6409C188.088 96.6409 187.011 96.3761 186.07 95.8464C185.128 95.3083 184.388 94.5012 183.85 93.425C183.312 92.3405 183.043 90.9742 183.043 89.3263V77.0176H186.019V89.1245C186.019 90.537 186.414 91.6636 187.205 92.5044C188.003 93.3452 189.021 93.7655 190.257 93.7655C190.997 93.7655 191.749 93.5764 192.514 93.198C193.288 92.8197 193.935 92.2396 194.456 91.4577C194.986 90.6757 195.251 89.6794 195.251 88.4688ZM212.103 77.0176V79.5399H202.064V77.0176H212.103ZM204.99 72.3766H207.966V90.8397C207.966 91.6805 208.088 92.311 208.332 92.7314C208.584 93.1434 208.904 93.4208 209.29 93.5638C209.686 93.6983 210.102 93.7655 210.539 93.7655C210.867 93.7655 211.136 93.7487 211.346 93.7151C211.556 93.6731 211.724 93.6394 211.85 93.6142L212.456 96.2878C212.254 96.3635 211.972 96.4391 211.611 96.5148C211.249 96.5989 210.791 96.6409 210.236 96.6409C209.395 96.6409 208.572 96.4602 207.764 96.0986C206.966 95.7371 206.301 95.1864 205.772 94.4466C205.251 93.7067 204.99 92.7734 204.99 91.6468V72.3766ZM216.58 96.3887V77.0176H219.556V96.3887H216.58ZM218.093 73.7891C217.513 73.7891 217.013 73.5915 216.592 73.1964C216.18 72.8012 215.974 72.3262 215.974 71.7713C215.974 71.2164 216.18 70.7414 216.592 70.3462C217.013 69.9511 217.513 69.7535 218.093 69.7535C218.673 69.7535 219.169 69.9511 219.581 70.3462C220.002 70.7414 220.212 71.2164 220.212 71.7713C220.212 72.3262 220.002 72.8012 219.581 73.1964C219.169 73.5915 218.673 73.7891 218.093 73.7891ZM232.877 96.7923C231.128 96.7923 229.594 96.3761 228.274 95.5437C226.962 94.7114 225.936 93.5469 225.196 92.0504C224.465 90.5538 224.099 88.8051 224.099 86.8041C224.099 84.7862 224.465 83.0248 225.196 81.5199C225.936 80.0149 226.962 78.8463 228.274 78.0139C229.594 77.1816 231.128 76.7654 232.877 76.7654C234.626 76.7654 236.156 77.1816 237.467 78.0139C238.787 78.8463 239.813 80.0149 240.545 81.5199C241.284 83.0248 241.654 84.7862 241.654 86.8041C241.654 88.8051 241.284 90.5538 240.545 92.0504C239.813 93.5469 238.787 94.7114 237.467 95.5437C236.156 96.3761 234.626 96.7923 232.877 96.7923ZM232.877 94.1187C234.205 94.1187 235.298 93.7781 236.156 93.0971C237.013 92.4161 237.648 91.5207 238.06 90.4109C238.472 89.3011 238.678 88.0988 238.678 86.8041C238.678 85.5093 238.472 84.3028 238.06 83.1846C237.648 82.0664 237.013 81.1626 236.156 80.4731C235.298 79.7837 234.205 79.439 232.877 79.439C231.548 79.439 230.455 79.7837 229.598 80.4731C228.74 81.1626 228.106 82.0664 227.694 83.1846C227.282 84.3028 227.076 85.5093 227.076 86.8041C227.076 88.0988 227.282 89.3011 227.694 90.4109C228.106 91.5207 228.74 92.4161 229.598 93.0971C230.455 93.7781 231.548 94.1187 232.877 94.1187ZM249.174 84.7358V96.3887H246.198V77.0176H249.073V80.0444H249.325C249.779 79.0607 250.469 78.2704 251.393 77.6734C252.318 77.0681 253.512 76.7654 254.975 76.7654C256.287 76.7654 257.434 77.0344 258.418 77.5725C259.402 78.1022 260.167 78.9093 260.713 79.9939C261.26 81.0701 261.533 82.4321 261.533 84.08V96.3887H258.557V84.2818C258.557 82.76 258.162 81.5745 257.371 80.7254C256.581 79.8678 255.496 79.439 254.118 79.439C253.167 79.439 252.318 79.645 251.57 80.057C250.83 80.4689 250.246 81.0701 249.817 81.8604C249.388 82.6507 249.174 83.6092 249.174 84.7358ZM277.363 96.3887V70.5606H286.091C288.117 70.5606 289.773 70.9263 291.059 71.6578C292.354 72.3808 293.313 73.3603 293.935 74.5962C294.557 75.8322 294.868 77.211 294.868 78.7328C294.868 80.2545 294.557 81.6376 293.935 82.8819C293.321 84.1262 292.371 85.1183 291.085 85.8582C289.798 86.5897 288.15 86.9554 286.141 86.9554H279.886V84.1809H286.04C287.427 84.1809 288.541 83.9413 289.382 83.462C290.223 82.9828 290.832 82.3354 291.211 81.5199C291.597 80.6959 291.791 79.7669 291.791 78.7328C291.791 77.6986 291.597 76.7738 291.211 75.9583C290.832 75.1427 290.219 74.5038 289.369 74.0413C288.52 73.5705 287.394 73.3351 285.99 73.3351H280.491V96.3887H277.363ZM305.203 96.8427C303.976 96.8427 302.862 96.6115 301.861 96.1491C300.861 95.6783 300.066 95.0015 299.477 94.1187C298.889 93.2275 298.595 92.1513 298.595 90.8901C298.595 89.7803 298.813 88.8807 299.25 88.1913C299.688 87.4935 300.272 86.947 301.003 86.5518C301.735 86.1567 302.542 85.8624 303.425 85.669C304.316 85.4673 305.211 85.3075 306.111 85.1898C307.288 85.0385 308.242 84.925 308.974 84.8493C309.714 84.7652 310.252 84.6265 310.588 84.4331C310.933 84.2397 311.105 83.9034 311.105 83.4242V83.3233C311.105 82.079 310.765 81.1121 310.084 80.4227C309.411 79.7333 308.39 79.3886 307.019 79.3886C305.598 79.3886 304.484 79.6996 303.677 80.3218C302.87 80.944 302.302 81.6082 301.975 82.3144L299.15 81.3055C299.654 80.1284 300.327 79.212 301.167 78.5562C302.017 77.892 302.941 77.4296 303.942 77.169C304.951 76.8999 305.943 76.7654 306.918 76.7654C307.54 76.7654 308.255 76.8411 309.062 76.9924C309.878 77.1353 310.664 77.4338 311.42 77.8878C312.186 78.3418 312.82 79.027 313.325 79.9435C313.829 80.8599 314.081 82.0874 314.081 83.626V96.3887H311.105V93.7655H310.954C310.752 94.1859 310.416 94.6357 309.945 95.115C309.474 95.5942 308.848 96.002 308.066 96.3383C307.284 96.6746 306.33 96.8427 305.203 96.8427ZM305.657 94.1691C306.834 94.1691 307.826 93.9379 308.633 93.4755C309.449 93.0131 310.063 92.4161 310.475 91.6847C310.895 90.9532 311.105 90.1839 311.105 89.3768V86.6527C310.979 86.8041 310.702 86.9428 310.273 87.0689C309.852 87.1866 309.365 87.2917 308.81 87.3842C308.263 87.4683 307.73 87.5439 307.208 87.6112C306.695 87.67 306.279 87.7205 305.96 87.7625C305.186 87.8634 304.463 88.0274 303.791 88.2544C303.126 88.473 302.588 88.8051 302.176 89.2507C301.773 89.6879 301.571 90.2848 301.571 91.0415C301.571 92.0756 301.954 92.8575 302.719 93.3872C303.492 93.9085 304.472 94.1691 305.657 94.1691ZM319.514 96.3887V77.0176H322.389V79.9435H322.591C322.944 78.985 323.583 78.2073 324.508 77.6104C325.433 77.0134 326.475 76.715 327.636 76.715C327.854 76.715 328.127 76.7192 328.455 76.7276C328.783 76.736 329.031 76.7486 329.199 76.7654V79.7921C329.098 79.7669 328.867 79.7291 328.506 79.6786C328.153 79.6198 327.778 79.5903 327.383 79.5903C326.442 79.5903 325.601 79.7879 324.861 80.1831C324.13 80.5698 323.549 81.1079 323.121 81.7973C322.7 82.4784 322.49 83.2561 322.49 84.1304V96.3887H319.514ZM342.366 77.0176V79.5399H332.327V77.0176H342.366ZM335.253 72.3766H338.229V90.8397C338.229 91.6805 338.351 92.311 338.595 92.7314C338.847 93.1434 339.167 93.4208 339.553 93.5638C339.948 93.6983 340.365 93.7655 340.802 93.7655C341.13 93.7655 341.399 93.7487 341.609 93.7151C341.819 93.6731 341.987 93.6394 342.113 93.6142L342.719 96.2878C342.517 96.3635 342.235 96.4391 341.874 96.5148C341.512 96.5989 341.054 96.6409 340.499 96.6409C339.658 96.6409 338.834 96.4602 338.027 96.0986C337.229 95.7371 336.564 95.1864 336.035 94.4466C335.513 93.7067 335.253 92.7734 335.253 91.6468V72.3766ZM349.819 84.7358V96.3887H346.843V77.0176H349.718V80.0444H349.97C350.424 79.0607 351.114 78.2704 352.039 77.6734C352.963 77.0681 354.157 76.7654 355.62 76.7654C356.932 76.7654 358.079 77.0344 359.063 77.5725C360.047 78.1022 360.812 78.9093 361.358 79.9939C361.905 81.0701 362.178 82.4321 362.178 84.08V96.3887H359.202V84.2818C359.202 82.76 358.807 81.5745 358.016 80.7254C357.226 79.8678 356.141 79.439 354.763 79.439C353.813 79.439 352.963 79.645 352.215 80.057C351.475 80.4689 350.891 81.0701 350.462 81.8604C350.033 82.6507 349.819 83.6092 349.819 84.7358ZM375.738 96.7923C373.872 96.7923 372.262 96.3803 370.908 95.5564C369.563 94.724 368.525 93.5638 367.793 92.0756C367.07 90.5791 366.709 88.8387 366.709 86.8545C366.709 84.8703 367.07 83.1215 367.793 81.6082C368.525 80.0864 369.542 78.9009 370.845 78.0518C372.157 77.1942 373.687 76.7654 375.436 76.7654C376.445 76.7654 377.441 76.9336 378.425 77.2699C379.408 77.6062 380.304 78.1527 381.111 78.9093C381.918 79.6576 382.561 80.6497 383.04 81.8856C383.52 83.1215 383.759 84.6433 383.759 86.4509V87.7121H368.827V85.1394H380.733C380.733 84.0464 380.514 83.0711 380.077 82.2135C379.648 81.3559 379.034 80.6791 378.236 80.1831C377.445 79.687 376.512 79.439 375.436 79.439C374.25 79.439 373.225 79.7333 372.359 80.3218C371.501 80.9019 370.841 81.6586 370.379 82.5919C369.916 83.5251 369.685 84.5256 369.685 85.5934V87.3085C369.685 88.7714 369.937 90.0115 370.442 91.0289C370.955 92.0378 371.665 92.8071 372.573 93.3367C373.481 93.858 374.536 94.1187 375.738 94.1187C376.52 94.1187 377.227 94.0094 377.857 93.7908C378.496 93.5638 379.047 93.2275 379.509 92.7818C379.972 92.3278 380.329 91.7645 380.581 91.0919L383.457 91.8991C383.154 92.8743 382.645 93.7319 381.931 94.4718C381.216 95.2032 380.333 95.7749 379.282 96.1869C378.231 96.5905 377.05 96.7923 375.738 96.7923ZM388.287 96.3887V77.0176H391.162V79.9435H391.364C391.717 78.985 392.356 78.2073 393.281 77.6104C394.206 77.0134 395.248 76.715 396.409 76.715C396.627 76.715 396.9 76.7192 397.228 76.7276C397.556 76.736 397.804 76.7486 397.972 76.7654V79.7921C397.871 79.7669 397.64 79.7291 397.279 79.6786C396.926 79.6198 396.551 79.5903 396.156 79.5903C395.215 79.5903 394.374 79.7879 393.634 80.1831C392.903 80.5698 392.322 81.1079 391.894 81.7973C391.473 82.4784 391.263 83.2561 391.263 84.1304V96.3887H388.287Z" fill="white"/>
</svg>
